<?xml version="1.0" encoding="utf-8"?>
<svg viewBox="0 0 500 500" xmlns="http://www.w3.org/2000/svg">
  <g transform="matrix(1, 0, 0, 1, -4.973286151885979, -45.37400817871094)">
    <path d="M 141.091 151.204 L 200 151.204 L 83.247 400 L 8.937 438.87 L 141.091 151.204 Z" style="filter: none; fill: rgb(48, 151, 62);"/>
    <polygon style="filter: none; fill: rgb(48, 151, 62);" points="17.751 147.929 74.119 275.525 100 215.719 76.666 148.004"/>
    <polygon style="filter: none; fill: rgb(48, 151, 62); transform-box: fill-box; transform-origin: 50% 50%;" points="117.751 287.251 169.101 400 200 337.472 176.666 287.31" transform="matrix(-1, 0, 0, -1, 0.000067, 0.000066)"/>
    <path d="M 150.829 272.461 L 250.98 272.461 L 216.864 312.091 L 266.909 400 L 219.058 400 L 150.829 272.461" style="filter: none; fill: rgb(48, 151, 62);"/>
    <g style="">
      <rect x="307.206" y="204.086" width="44.488" height="31.323" style="filter: none; fill: rgb(48, 151, 62);" transform="matrix(1, 0, -0.797626, 1, 111.267181, 71.301552)"/>
      <rect x="255.9" y="300" width="44.1" height="87.385" style="filter: none; fill: rgb(48, 151, 62);" transform="matrix(1, 0, 0.645186, 1, -218.15834, 12.614998)"/>
    </g>
    <rect x="136.692" y="164.238" width="300.411" height="101.529" style="fill: rgb(55, 55, 55); stroke: rgb(60, 60, 60);" transform="matrix(1, 0, -0.448438, 1, 137.557098, 1.493071)"/>
    <path d="M 351.773 340.44 C 362.221 359.38 378.956 384.912 389.703 400 L 345.603 400 L 289.223 312.615 L 314.762 275.525 L 380.077 275.525 L 331.963 312.767 L 388.162 300 L 351.773 340.44 Z" style="filter: none; fill: rgb(48, 151, 62);"/>
    <path style="filter: none; fill: rgb(48, 151, 62);" d="M 424.187 442.872 L 13.226 441.063 L 82.417 406.529 L 401.704 409.473 L 424.187 442.872 Z M 401.57 409.497 L 405.427 400.152 L 369.238 347.593 L 410.099 284.977 L 446.769 275.677 L 407.157 334.686 L 429.169 335.857 L 452.392 294.043 L 494.853 277.435 L 424.005 442.879 L 401.681 409.742"/>
    <path d="M 70.64 257.268 Q 70.279 258.715 69.468 259.958 Q 68.657 261.201 67.531 262.11 Q 66.404 263.02 65.034 263.53 Q 63.663 264.04 62.197 264.04 L 44.515 264.04 L 45.718 259.216 L 63.4 259.216 Q 64.291 259.216 64.919 258.706 Q 65.547 258.195 65.779 257.268 L 70.724 237.433 L 75.585 237.433 Z M 96.201 257.397 Q 95.951 258.399 95.309 259.559 Q 94.668 260.719 93.632 261.711 Q 92.596 262.704 91.158 263.372 Q 89.721 264.04 87.902 264.04 L 79.2 264.04 Q 78.198 264.04 77.126 263.687 Q 76.055 263.335 75.259 262.546 Q 74.462 261.758 74.111 260.487 Q 73.76 259.216 74.214 257.397 Q 74.463 256.395 75.107 255.227 Q 75.751 254.058 76.788 253.065 Q 77.824 252.072 79.261 251.404 Q 80.699 250.736 82.517 250.736 L 91.219 250.736 L 90.072 255.338 L 81.37 255.338 Q 80.386 255.338 79.698 255.941 Q 79.009 256.544 78.787 257.435 Q 78.551 258.381 79.041 258.91 Q 79.531 259.438 80.384 259.438 L 89.05 259.438 Q 90.033 259.438 90.719 258.845 Q 91.405 258.251 91.627 257.36 L 93.307 250.625 Q 93.542 249.679 93.097 249.122 Q 92.651 248.565 91.76 248.565 L 81.166 248.565 L 82.308 243.982 L 92.903 243.982 Q 93.905 243.982 94.977 244.335 Q 96.049 244.687 96.845 245.476 Q 97.641 246.265 97.992 247.536 Q 98.343 248.807 97.89 250.625 Z M 127.579 243.982 Q 126.128 246.524 124.418 248.992 Q 122.708 251.46 120.731 253.696 Q 118.755 255.932 116.527 257.833 Q 114.299 259.735 111.83 261.118 Q 109.361 262.5 106.669 263.289 Q 103.977 264.077 101.064 264.077 Q 100.563 264.077 100.164 263.892 Q 99.764 263.706 99.511 263.381 Q 99.258 263.057 99.182 262.621 Q 99.105 262.185 99.23 261.684 L 103.643 243.982 L 108.467 243.982 L 104.706 259.067 Q 106.469 259.067 108.282 258.307 Q 110.095 257.546 111.855 256.293 Q 113.614 255.041 115.246 253.445 Q 116.878 251.85 118.261 250.17 Q 119.645 248.491 120.725 246.877 Q 121.804 245.263 122.458 243.982 Z M 146.048 257.397 Q 145.798 258.399 145.156 259.559 Q 144.515 260.719 143.479 261.711 Q 142.443 262.704 141.005 263.372 Q 139.568 264.04 137.749 264.04 L 129.047 264.04 Q 128.045 264.04 126.973 263.687 Q 125.902 263.335 125.106 262.546 Q 124.309 261.758 123.958 260.487 Q 123.607 259.216 124.061 257.397 Q 124.31 256.395 124.954 255.227 Q 125.598 254.058 126.635 253.065 Q 127.671 252.072 129.108 251.404 Q 130.546 250.736 132.364 250.736 L 141.066 250.736 L 139.919 255.338 L 131.217 255.338 Q 130.233 255.338 129.545 255.941 Q 128.856 256.544 128.634 257.435 Q 128.398 258.381 128.888 258.91 Q 129.378 259.438 130.231 259.438 L 138.897 259.438 Q 139.88 259.438 140.566 258.845 Q 141.252 258.251 141.474 257.36 L 143.154 250.625 Q 143.389 249.679 142.944 249.122 Q 142.498 248.565 141.607 248.565 L 131.013 248.565 L 132.155 243.982 L 142.75 243.982 Q 143.752 243.982 144.824 244.335 Q 145.896 244.687 146.692 245.476 Q 147.488 246.265 147.839 247.536 Q 148.19 248.807 147.737 250.625 Z M 176.56 256.21 Q 176.204 257.639 175.558 258.78 Q 174.912 259.921 174.1 260.793 Q 173.289 261.665 172.339 262.277 Q 171.388 262.89 170.437 263.279 Q 169.487 263.669 168.559 263.854 Q 167.632 264.04 166.852 264.04 L 148.242 264.04 L 149.445 259.216 L 168.055 259.216 Q 169.447 259.216 170.42 258.399 Q 171.394 257.583 171.736 256.21 Q 171.903 255.542 171.837 254.985 Q 171.772 254.429 171.493 254.02 Q 171.215 253.612 170.723 253.39 Q 170.231 253.167 169.563 253.167 L 158.468 253.167 Q 157.299 253.167 156.048 252.749 Q 154.798 252.332 153.869 251.404 Q 152.941 250.477 152.546 248.974 Q 152.15 247.471 152.692 245.3 Q 153.233 243.129 154.375 241.635 Q 155.518 240.142 156.911 239.205 Q 158.304 238.268 159.763 237.85 Q 161.222 237.433 162.391 237.433 L 178.811 237.433 L 177.609 242.257 L 161.188 242.257 Q 159.815 242.257 158.836 243.092 Q 157.858 243.927 157.516 245.3 Q 157.169 246.691 157.738 247.499 Q 158.307 248.306 159.68 248.306 L 170.775 248.306 L 170.812 248.306 Q 171.587 248.324 172.411 248.519 Q 173.234 248.714 173.995 249.122 Q 174.756 249.53 175.38 250.152 Q 176.005 250.773 176.39 251.645 Q 176.776 252.518 176.846 253.649 Q 176.917 254.781 176.56 256.21 Z M 197.498 264.04 L 184.417 264.04 Q 183.415 264.04 182.315 263.687 Q 181.216 263.335 180.406 262.528 Q 179.596 261.721 179.24 260.431 Q 178.884 259.142 179.352 257.268 L 180.98 250.736 Q 181.151 250.05 181.499 249.289 Q 181.846 248.528 182.367 247.777 Q 182.889 247.025 183.589 246.339 Q 184.289 245.652 185.17 245.133 Q 186.051 244.613 187.113 244.298 Q 188.175 243.982 189.418 243.982 L 202.499 243.982 L 201.296 248.807 L 188.215 248.807 Q 187.269 248.807 186.657 249.289 Q 186.045 249.771 185.795 250.773 L 184.176 257.268 Q 183.94 258.214 184.316 258.715 Q 184.692 259.216 185.657 259.216 L 198.701 259.216 Z M 222.822 248.807 L 211.968 248.807 Q 210.984 248.807 210.361 249.298 Q 209.737 249.79 209.501 250.736 L 206.184 264.04 L 201.36 264.04 L 204.677 250.736 Q 204.987 249.493 205.547 248.51 Q 206.108 247.526 206.824 246.775 Q 207.54 246.023 208.359 245.495 Q 209.177 244.966 210.012 244.632 Q 210.847 244.298 211.656 244.14 Q 212.465 243.982 213.133 243.982 L 224.025 243.982 Z M 233.114 239.863 L 228.29 239.863 L 229.377 235.503 L 234.201 235.503 Z M 227.086 264.04 L 222.262 264.04 L 227.263 243.982 L 232.087 243.982 Z M 255.511 257.268 Q 255.201 258.511 254.638 259.503 Q 254.075 260.496 253.368 261.248 Q 252.662 261.999 251.843 262.528 Q 251.025 263.057 250.19 263.391 Q 249.355 263.725 248.555 263.882 Q 247.755 264.04 247.069 264.04 L 238.367 264.04 L 239.569 259.216 L 248.272 259.216 Q 249.236 259.216 249.844 258.715 Q 250.451 258.214 250.687 257.268 L 252.306 250.773 Q 252.556 249.771 252.185 249.289 Q 251.813 248.807 250.867 248.807 L 242.202 248.807 Q 241.218 248.807 240.595 249.298 Q 239.971 249.79 239.735 250.736 L 234.855 270.311 L 230.03 270.311 L 234.911 250.736 Q 235.221 249.493 235.782 248.51 Q 236.342 247.526 237.058 246.775 Q 237.775 246.023 238.593 245.495 Q 239.411 244.966 240.246 244.632 Q 241.081 244.298 241.89 244.14 Q 242.7 243.982 243.367 243.982 L 252.07 243.982 Q 253.313 243.982 254.218 244.298 Q 255.122 244.613 255.744 245.133 Q 256.366 245.652 256.724 246.339 Q 257.081 247.025 257.228 247.777 Q 257.375 248.528 257.343 249.289 Q 257.311 250.05 257.14 250.736 Z M 279.876 248.807 L 271.453 248.807 L 267.654 264.04 L 262.775 264.04 L 266.573 248.807 L 260.301 248.807 L 261.504 243.982 L 267.776 243.982 L 269.409 237.433 L 274.288 237.433 L 272.655 243.982 L 281.079 243.982 Z" transform="matrix(1, 0, 0, 1, 153.915497, -50.241364)" style="fill: rgb(48, 152, 62); text-transform: capitalize;"/>
    <path transform="matrix(1, 0, 0, 1, 153.915497, -50.241364)" style="fill: rgb(48, 152, 62); text-transform: capitalize;"/>
    <path d="M 28.548 286.306 L 45.488 286.306 L 48.199 275.433 L 53.024 275.433 L 46.39 302.04 L 41.565 302.04 L 44.276 291.167 L 27.336 291.167 L 24.625 302.04 L 19.801 302.04 L 26.435 275.433 L 31.259 275.433 Z M 81.482 280.257 L 70.85 280.257 L 65.419 302.04 L 60.595 302.04 L 66.026 280.257 L 55.376 280.257 L 56.579 275.433 L 82.685 275.433 Z M 110.56 302.04 L 105.699 302.04 L 109.65 286.194 L 97.344 301.242 Q 96.885 301.817 96.245 302.114 Q 95.605 302.411 94.956 302.411 Q 94.325 302.411 93.852 302.114 Q 93.379 301.817 93.207 301.242 L 88.368 286.194 L 84.417 302.04 L 79.593 302.04 L 85.713 277.492 Q 85.921 276.657 86.575 276.008 Q 87.228 275.358 88.082 275.136 Q 88.495 275.043 88.877 275.071 Q 89.26 275.099 89.587 275.238 Q 89.914 275.377 90.149 275.627 Q 90.383 275.878 90.499 276.23 L 96.723 295.323 L 112.468 276.23 Q 113.071 275.525 113.896 275.228 Q 114.722 274.932 115.487 275.136 Q 116.211 275.358 116.55 276.008 Q 116.889 276.657 116.681 277.492 Z M 140.584 302.04 L 118.578 302.04 Q 118.058 302.04 117.659 301.854 Q 117.26 301.669 117.016 301.344 Q 116.773 301.02 116.698 300.574 Q 116.624 300.129 116.753 299.609 L 122.781 275.433 L 127.605 275.433 L 122.174 297.216 L 141.786 297.216 Z M 175.909 302.04 L 153.903 302.04 Q 153.384 302.04 152.985 301.854 Q 152.586 301.669 152.342 301.344 Q 152.098 301.02 152.024 300.574 Q 151.949 300.129 152.079 299.609 L 158.107 275.433 L 162.931 275.433 L 157.5 297.216 L 177.112 297.216 Z M 189.838 277.863 L 185.014 277.863 L 186.101 273.503 L 190.925 273.503 Z M 183.81 302.04 L 178.986 302.04 L 183.987 281.982 L 188.811 281.982 Z M 212.223 295.268 Q 212.052 295.954 211.704 296.715 Q 211.357 297.476 210.835 298.227 Q 210.314 298.978 209.614 299.665 Q 208.914 300.352 208.031 300.88 Q 207.147 301.409 206.085 301.725 Q 205.023 302.04 203.78 302.04 L 195.078 302.04 Q 194.392 302.04 193.67 301.882 Q 192.949 301.725 192.281 301.391 Q 191.612 301.057 191.058 300.528 Q 190.503 299.999 190.162 299.248 Q 189.82 298.496 189.752 297.503 Q 189.684 296.511 189.994 295.268 L 195.421 273.503 L 200.245 273.503 L 194.818 295.268 Q 194.596 296.158 195.021 296.687 Q 195.446 297.216 196.281 297.216 L 204.983 297.216 Q 205.892 297.216 206.537 296.678 Q 207.181 296.14 207.398 295.268 L 209.027 288.736 Q 209.254 287.827 208.843 287.317 Q 208.432 286.807 207.578 286.807 L 198.876 286.807 L 200.079 281.982 L 208.781 281.982 Q 209.468 281.982 210.189 282.14 Q 210.911 282.298 211.579 282.632 Q 212.247 282.966 212.802 283.495 Q 213.356 284.023 213.688 284.775 Q 214.021 285.526 214.091 286.51 Q 214.161 287.493 213.851 288.736 Z M 236.002 286.807 L 225.147 286.807 Q 224.164 286.807 223.54 287.298 Q 222.917 287.79 222.681 288.736 L 219.364 302.04 L 214.54 302.04 L 217.857 288.736 Q 218.166 287.493 218.727 286.51 Q 219.288 285.526 220.004 284.775 Q 220.72 284.023 221.538 283.495 Q 222.357 282.966 223.192 282.632 Q 224.026 282.298 224.836 282.14 Q 225.645 281.982 226.313 281.982 L 237.205 281.982 Z M 256.175 295.397 Q 255.926 296.399 255.284 297.559 Q 254.642 298.719 253.606 299.711 Q 252.57 300.704 251.133 301.372 Q 249.695 302.04 247.877 302.04 L 239.174 302.04 Q 238.173 302.04 237.101 301.687 Q 236.029 301.335 235.233 300.546 Q 234.437 299.758 234.086 298.487 Q 233.735 297.216 234.188 295.397 Q 234.438 294.395 235.082 293.227 Q 235.726 292.058 236.762 291.065 Q 237.798 290.072 239.236 289.404 Q 240.673 288.736 242.491 288.736 L 251.194 288.736 L 250.046 293.338 L 241.344 293.338 Q 240.361 293.338 239.672 293.941 Q 238.984 294.544 238.762 295.435 Q 238.526 296.381 239.016 296.91 Q 239.505 297.438 240.359 297.438 L 249.024 297.438 Q 250.007 297.438 250.693 296.845 Q 251.38 296.251 251.602 295.36 L 253.281 288.625 Q 253.517 287.679 253.071 287.122 Q 252.626 286.565 251.735 286.565 L 241.14 286.565 L 242.283 281.982 L 252.878 281.982 Q 253.88 281.982 254.951 282.335 Q 256.023 282.687 256.819 283.476 Q 257.615 284.265 257.966 285.536 Q 258.317 286.807 257.864 288.625 Z M 279.967 286.807 L 269.113 286.807 Q 268.13 286.807 267.506 287.298 Q 266.882 287.79 266.646 288.736 L 263.329 302.04 L 258.505 302.04 L 261.822 288.736 Q 262.132 287.493 262.693 286.51 Q 263.253 285.526 263.97 284.775 Q 264.686 284.023 265.504 283.495 Q 266.323 282.966 267.157 282.632 Q 267.992 282.298 268.801 282.14 Q 269.611 281.982 270.279 281.982 L 281.17 281.982 Z M 300.969 303.97 Q 300.659 305.213 300.096 306.206 Q 299.533 307.198 298.826 307.95 Q 298.119 308.701 297.301 309.23 Q 296.483 309.759 295.648 310.093 Q 294.813 310.427 294.013 310.584 Q 293.213 310.742 292.526 310.742 L 283.824 310.742 L 285.027 305.918 L 293.729 305.918 Q 294.694 305.918 295.301 305.417 Q 295.909 304.916 296.145 303.97 L 301.627 281.982 L 306.451 281.982 Z M 294.696 302.04 L 285.994 302.04 Q 284.955 302.04 283.865 301.687 Q 282.774 301.335 281.955 300.528 Q 281.136 299.721 280.789 298.431 Q 280.443 297.142 280.91 295.268 L 284.222 281.982 L 289.047 281.982 L 285.734 295.268 Q 285.498 296.214 285.874 296.715 Q 286.251 297.216 287.234 297.216 L 295.899 297.216 Z" transform="matrix(1, 0, 0, 1, 153.915497, -50.241364)" style="fill: rgb(48, 152, 62); text-transform: capitalize;"/>
    <path d="M 112.608 354.546 L 137.102 400 L 88.113 400 L 112.608 354.546 Z" style="fill: rgb(55, 55, 55); stroke: rgb(60, 60, 60); transform-box: fill-box; transform-origin: 50.4074% 55.7084%;">
      <animateTransform type="rotate" additive="sum" attributeName="transform" values="0;359.99" dur="2s" fill="freeze" keyTimes="0; 1" repeatCount="indefinite" calcMode="spline" keySplines="0.42 0 0.58 1"/>
      <animateTransform type="scale" additive="sum" attributeName="transform" values="1 1;3.55 3.55;1 1" begin="0s" dur="2s" fill="freeze" repeatCount="indefinite" keyTimes="0; 0.5; 1"/>
    </path>
  </g>
</svg>